# xmcd CD database file
#
# Track frame offsets:
#	210
#	17980
#	35440
#	54982
#	73305
#	92232
#	110312
#	126535
#	144522
#	160097
#
# Disc length: 2399 seconds
#
# Revision: 0
# Processed by: cddbd v1.4PL0 Copyright (c) Steve Scherf et al.
# Submitted via: CDex 1.50
#
DISCID=8d095d0a
DTITLE=Miguel Moly - La Morena
DYEAR=1900
DGENRE=Merengue
TTITLE0=La Morena
TTITLE1=Si Estuvieras Conmigo
TTITLE2=Me Tienes Loco
TTITLE3=Solo Importas Tu
TTITLE4=Por Quiererte Tanto
TTITLE5=Yo Por Ti
TTITLE6=La Licra
TTITLE7=Tengo Ganas
TTITLE8=Quiero Ser Todo En Tu Vida
TTITLE9=La Gorda
EXTD=
EXTT0=
EXTT1=
EXTT2=
EXTT3=
EXTT4=
EXTT5=
EXTT6=
EXTT7=
EXTT8=
EXTT9=
PLAYORDER=
